<mxfile host="app.diagrams.net" agent="Mozilla/5.0 (Windows NT 10.0; Win64; x64) AppleWebKit/537.36 (KHTML, like Gecko) Chrome/137.0.0.0 Safari/537.36" version="27.1.6">
  <diagram name="Página-1" id="k5elsXANRmRWw5E5maU0">
    <mxGraphModel grid="1" page="1" gridSize="10" guides="1" tooltips="1" connect="1" arrows="1" fold="1" pageScale="1" pageWidth="827" pageHeight="1169" math="0" shadow="0">
      <root>
        <mxCell id="0" />
        <mxCell id="1" parent="0" />
        <mxCell id="HF1Z3YEZvuJg2-Woi6Kg-46" value="" style="group" connectable="0" vertex="1" parent="1">
          <mxGeometry x="-670" y="79.99888888888889" width="1420" height="916.0011111111111" as="geometry" />
        </mxCell>
        <mxCell id="HF1Z3YEZvuJg2-Woi6Kg-2" style="edgeStyle=orthogonalEdgeStyle;rounded=0;orthogonalLoop=1;jettySize=auto;html=1;entryX=0.5;entryY=1;entryDx=0;entryDy=0;" edge="1" parent="HF1Z3YEZvuJg2-Woi6Kg-46" source="HF1Z3YEZvuJg2-Woi6Kg-1" target="HF1Z3YEZvuJg2-Woi6Kg-9">
          <mxGeometry relative="1" as="geometry">
            <mxPoint x="125" y="570.0011111111111" as="targetPoint" />
          </mxGeometry>
        </mxCell>
        <mxCell id="HF1Z3YEZvuJg2-Woi6Kg-45" style="edgeStyle=orthogonalEdgeStyle;rounded=0;orthogonalLoop=1;jettySize=auto;html=1;exitX=0;exitY=0.5;exitDx=0;exitDy=0;entryX=1;entryY=0.5;entryDx=0;entryDy=0;" edge="1" parent="HF1Z3YEZvuJg2-Woi6Kg-46" source="HF1Z3YEZvuJg2-Woi6Kg-6" target="qxQgp63TrIXnHu4Tk5A8-18">
          <mxGeometry relative="1" as="geometry" />
        </mxCell>
        <mxCell id="HF1Z3YEZvuJg2-Woi6Kg-6" value="EQUIPO" style="rounded=0;whiteSpace=wrap;html=1;" vertex="1" parent="HF1Z3YEZvuJg2-Woi6Kg-46">
          <mxGeometry x="890" y="84.66111111111111" width="160" height="34.34" as="geometry" />
        </mxCell>
        <mxCell id="HF1Z3YEZvuJg2-Woi6Kg-8" style="edgeStyle=orthogonalEdgeStyle;rounded=0;orthogonalLoop=1;jettySize=auto;html=1;exitX=0.5;exitY=1;exitDx=0;exitDy=0;" edge="1" parent="HF1Z3YEZvuJg2-Woi6Kg-46" source="HF1Z3YEZvuJg2-Woi6Kg-6" target="HF1Z3YEZvuJg2-Woi6Kg-6">
          <mxGeometry relative="1" as="geometry" />
        </mxCell>
        <mxCell id="qxQgp63TrIXnHu4Tk5A8-33" value="TRABAJADOR" style="rounded=0;whiteSpace=wrap;html=1;container=0;" vertex="1" parent="HF1Z3YEZvuJg2-Woi6Kg-46">
          <mxGeometry y="80.67111111111112" width="250" height="27.970261889640227" as="geometry" />
        </mxCell>
        <mxCell id="HF1Z3YEZvuJg2-Woi6Kg-43" style="edgeStyle=orthogonalEdgeStyle;rounded=0;orthogonalLoop=1;jettySize=auto;html=1;exitX=1;exitY=0.5;exitDx=0;exitDy=0;entryX=0;entryY=0.5;entryDx=0;entryDy=0;" edge="1" parent="HF1Z3YEZvuJg2-Woi6Kg-46" source="qxQgp63TrIXnHu4Tk5A8-36" target="qxQgp63TrIXnHu4Tk5A8-18">
          <mxGeometry relative="1" as="geometry" />
        </mxCell>
        <mxCell id="qxQgp63TrIXnHu4Tk5A8-36" value="&lt;div&gt;# nombre: string&lt;/div&gt;&lt;div&gt;# id: int&lt;/div&gt;&lt;div&gt;# anios_industria: int&lt;/div&gt;&lt;div&gt;# tipo: string&lt;/div&gt;" style="rounded=0;whiteSpace=wrap;html=1;container=0;" vertex="1" parent="HF1Z3YEZvuJg2-Woi6Kg-46">
          <mxGeometry y="103.63137300075134" width="250" height="80.65225015877759" as="geometry" />
        </mxCell>
        <mxCell id="HF1Z3YEZvuJg2-Woi6Kg-9" value="&lt;div&gt;+ Empleado(string, int, int) — constructor&lt;/div&gt;&lt;div&gt;+ getNombre(): string&lt;/div&gt;&lt;div&gt;+ getId(): int&lt;/div&gt;&lt;div&gt;+ getAniosIndustria(): int&lt;/div&gt;&lt;div&gt;+ getTipo(): string&lt;/div&gt;&lt;div&gt;+ setNombre(string): void&lt;/div&gt;&lt;div&gt;+ setId(int): void&lt;/div&gt;&lt;div&gt;+ setAniosIndustria(int): void&lt;/div&gt;&lt;div&gt;+ mostrarDatos(): void (virtual)&lt;/div&gt;&lt;div&gt;+ toFileString(): string (virtual)&lt;/div&gt;&lt;div&gt;+ fromFileString(string): void (virtual)&lt;/div&gt;&lt;div&gt;+ Empleado() — destructor virtual&lt;/div&gt;" style="rounded=0;whiteSpace=wrap;html=1;" vertex="1" parent="HF1Z3YEZvuJg2-Woi6Kg-46">
          <mxGeometry y="184.2811111111111" width="250" height="195.72" as="geometry" />
        </mxCell>
        <mxCell id="HF1Z3YEZvuJg2-Woi6Kg-10" value="&lt;div&gt;- numInventario: string&lt;/div&gt;&lt;div&gt;- costo: float&lt;/div&gt;" style="rounded=0;whiteSpace=wrap;html=1;" vertex="1" parent="HF1Z3YEZvuJg2-Woi6Kg-46">
          <mxGeometry x="890" y="119.00111111111111" width="160" height="47" as="geometry" />
        </mxCell>
        <mxCell id="HF1Z3YEZvuJg2-Woi6Kg-11" value="+&amp;nbsp;&lt;span style=&quot;background-color: transparent;&quot;&gt;calcularConsumo(): float&lt;/span&gt;" style="rounded=0;whiteSpace=wrap;html=1;" vertex="1" parent="HF1Z3YEZvuJg2-Woi6Kg-46">
          <mxGeometry x="890" y="166.00111111111113" width="160" height="40" as="geometry" />
        </mxCell>
        <mxCell id="HF1Z3YEZvuJg2-Woi6Kg-16" value="" style="edgeStyle=orthogonalEdgeStyle;rounded=0;orthogonalLoop=1;jettySize=auto;html=1;" edge="1" parent="HF1Z3YEZvuJg2-Woi6Kg-46" source="HF1Z3YEZvuJg2-Woi6Kg-12" target="HF1Z3YEZvuJg2-Woi6Kg-11">
          <mxGeometry relative="1" as="geometry" />
        </mxCell>
        <mxCell id="HF1Z3YEZvuJg2-Woi6Kg-17" value="" style="group" connectable="0" vertex="1" parent="HF1Z3YEZvuJg2-Woi6Kg-46">
          <mxGeometry x="890" y="298.6611111111111" width="160" height="81.34000000000003" as="geometry" />
        </mxCell>
        <mxCell id="HF1Z3YEZvuJg2-Woi6Kg-12" value="BOMBA" style="rounded=0;whiteSpace=wrap;html=1;" vertex="1" parent="HF1Z3YEZvuJg2-Woi6Kg-17">
          <mxGeometry width="160" height="34.34" as="geometry" />
        </mxCell>
        <mxCell id="HF1Z3YEZvuJg2-Woi6Kg-13" style="edgeStyle=orthogonalEdgeStyle;rounded=0;orthogonalLoop=1;jettySize=auto;html=1;exitX=0.5;exitY=1;exitDx=0;exitDy=0;" edge="1" parent="HF1Z3YEZvuJg2-Woi6Kg-17" source="HF1Z3YEZvuJg2-Woi6Kg-12" target="HF1Z3YEZvuJg2-Woi6Kg-12">
          <mxGeometry relative="1" as="geometry" />
        </mxCell>
        <mxCell id="HF1Z3YEZvuJg2-Woi6Kg-14" value="&lt;div&gt;- ps: float&lt;/div&gt;&lt;div&gt;- pd: float&lt;/div&gt;&lt;div&gt;&lt;span style=&quot;background-color: transparent; color: light-dark(rgb(0, 0, 0), rgb(255, 255, 255));&quot;&gt;- f: float&lt;/span&gt;&lt;/div&gt;" style="rounded=0;whiteSpace=wrap;html=1;" vertex="1" parent="HF1Z3YEZvuJg2-Woi6Kg-17">
          <mxGeometry y="34.34000000000003" width="160" height="47" as="geometry" />
        </mxCell>
        <mxCell id="HF1Z3YEZvuJg2-Woi6Kg-35" style="edgeStyle=orthogonalEdgeStyle;rounded=0;orthogonalLoop=1;jettySize=auto;html=1;exitX=0.5;exitY=0;exitDx=0;exitDy=0;entryX=1;entryY=0.75;entryDx=0;entryDy=0;" edge="1" parent="HF1Z3YEZvuJg2-Woi6Kg-46" source="HF1Z3YEZvuJg2-Woi6Kg-32" target="HF1Z3YEZvuJg2-Woi6Kg-10">
          <mxGeometry relative="1" as="geometry" />
        </mxCell>
        <mxCell id="HF1Z3YEZvuJg2-Woi6Kg-37" value="" style="group" connectable="0" vertex="1" parent="HF1Z3YEZvuJg2-Woi6Kg-46">
          <mxGeometry y="550.0011111111111" width="250" height="366" as="geometry" />
        </mxCell>
        <mxCell id="HF1Z3YEZvuJg2-Woi6Kg-1" value="DIRECTOR" style="rounded=0;whiteSpace=wrap;html=1;container=0;" vertex="1" parent="HF1Z3YEZvuJg2-Woi6Kg-37">
          <mxGeometry width="250" height="60" as="geometry" />
        </mxCell>
        <mxCell id="HF1Z3YEZvuJg2-Woi6Kg-3" value="&lt;div&gt;beeper: string&lt;/div&gt;&lt;div&gt;&lt;br&gt;&lt;/div&gt;&lt;div&gt;fecha_inicio: fecha&lt;/div&gt;" style="rounded=0;whiteSpace=wrap;html=1;container=0;" vertex="1" parent="HF1Z3YEZvuJg2-Woi6Kg-37">
          <mxGeometry y="60" width="250" height="60" as="geometry" />
        </mxCell>
        <mxCell id="HF1Z3YEZvuJg2-Woi6Kg-4" value="&lt;div&gt;Director(string, int, int, string, fecha) — constructor&lt;/div&gt;&lt;div&gt;&lt;br&gt;&lt;/div&gt;&lt;div&gt;getBeeper(): string&lt;/div&gt;&lt;div&gt;&lt;br&gt;&lt;/div&gt;&lt;div&gt;getFechaInicio(): fecha&lt;/div&gt;&lt;div&gt;&lt;br&gt;&lt;/div&gt;&lt;div&gt;setBeeper(string): void&lt;/div&gt;&lt;div&gt;&lt;br&gt;&lt;/div&gt;&lt;div&gt;setFechaInicio(fecha): void&lt;/div&gt;&lt;div&gt;&lt;br&gt;&lt;/div&gt;&lt;div&gt;mostrarDatos(): void&lt;/div&gt;&lt;div&gt;&lt;br&gt;&lt;/div&gt;&lt;div&gt;toFileString(): string&amp;nbsp;&lt;/div&gt;" style="rounded=0;whiteSpace=wrap;html=1;container=0;" vertex="1" parent="HF1Z3YEZvuJg2-Woi6Kg-37">
          <mxGeometry y="120" width="250" height="246" as="geometry" />
        </mxCell>
        <mxCell id="HF1Z3YEZvuJg2-Woi6Kg-38" value="" style="group" connectable="0" vertex="1" parent="HF1Z3YEZvuJg2-Woi6Kg-46">
          <mxGeometry x="720" y="440.00111111111113" width="160" height="120" as="geometry" />
        </mxCell>
        <mxCell id="HF1Z3YEZvuJg2-Woi6Kg-18" value="" style="group" connectable="0" vertex="1" parent="HF1Z3YEZvuJg2-Woi6Kg-38">
          <mxGeometry width="160" height="81.34000000000003" as="geometry" />
        </mxCell>
        <mxCell id="HF1Z3YEZvuJg2-Woi6Kg-22" style="edgeStyle=orthogonalEdgeStyle;rounded=0;orthogonalLoop=1;jettySize=auto;html=1;exitX=0.5;exitY=0;exitDx=0;exitDy=0;" edge="1" parent="HF1Z3YEZvuJg2-Woi6Kg-18" source="HF1Z3YEZvuJg2-Woi6Kg-19">
          <mxGeometry relative="1" as="geometry">
            <mxPoint x="250" y="-50" as="targetPoint" />
          </mxGeometry>
        </mxCell>
        <mxCell id="HF1Z3YEZvuJg2-Woi6Kg-19" value="CENTRIFUGA" style="rounded=0;whiteSpace=wrap;html=1;" vertex="1" parent="HF1Z3YEZvuJg2-Woi6Kg-18">
          <mxGeometry width="160" height="34.34" as="geometry" />
        </mxCell>
        <mxCell id="HF1Z3YEZvuJg2-Woi6Kg-20" style="edgeStyle=orthogonalEdgeStyle;rounded=0;orthogonalLoop=1;jettySize=auto;html=1;exitX=0.5;exitY=1;exitDx=0;exitDy=0;" edge="1" parent="HF1Z3YEZvuJg2-Woi6Kg-18" source="HF1Z3YEZvuJg2-Woi6Kg-19" target="HF1Z3YEZvuJg2-Woi6Kg-19">
          <mxGeometry relative="1" as="geometry" />
        </mxCell>
        <mxCell id="HF1Z3YEZvuJg2-Woi6Kg-21" value="&lt;div&gt;+ der: float (diámetro eje rotación)&lt;/div&gt;&lt;div&gt;+ np: int (número de paletas)&lt;/div&gt;" style="rounded=0;whiteSpace=wrap;html=1;" vertex="1" parent="HF1Z3YEZvuJg2-Woi6Kg-18">
          <mxGeometry y="34.34000000000003" width="160" height="47" as="geometry" />
        </mxCell>
        <mxCell id="HF1Z3YEZvuJg2-Woi6Kg-23" value="&lt;div&gt;+ calcularConsumo(): float&lt;/div&gt;" style="rounded=0;whiteSpace=wrap;html=1;" vertex="1" parent="HF1Z3YEZvuJg2-Woi6Kg-38">
          <mxGeometry y="81.34000000000003" width="160" height="38.66" as="geometry" />
        </mxCell>
        <mxCell id="HF1Z3YEZvuJg2-Woi6Kg-39" value="" style="group" connectable="0" vertex="1" parent="HF1Z3YEZvuJg2-Woi6Kg-46">
          <mxGeometry x="1020" y="440.00111111111113" width="160" height="120" as="geometry" />
        </mxCell>
        <mxCell id="HF1Z3YEZvuJg2-Woi6Kg-24" value="" style="group" connectable="0" vertex="1" parent="HF1Z3YEZvuJg2-Woi6Kg-39">
          <mxGeometry width="160" height="81.34000000000003" as="geometry" />
        </mxCell>
        <mxCell id="HF1Z3YEZvuJg2-Woi6Kg-30" style="edgeStyle=orthogonalEdgeStyle;rounded=0;orthogonalLoop=1;jettySize=auto;html=1;exitX=0.5;exitY=0;exitDx=0;exitDy=0;" edge="1" parent="HF1Z3YEZvuJg2-Woi6Kg-24" source="HF1Z3YEZvuJg2-Woi6Kg-26">
          <mxGeometry relative="1" as="geometry">
            <mxPoint x="-50" y="-50" as="targetPoint" />
          </mxGeometry>
        </mxCell>
        <mxCell id="HF1Z3YEZvuJg2-Woi6Kg-26" value="EMBOLO" style="rounded=0;whiteSpace=wrap;html=1;" vertex="1" parent="HF1Z3YEZvuJg2-Woi6Kg-24">
          <mxGeometry width="160" height="34.34" as="geometry" />
        </mxCell>
        <mxCell id="HF1Z3YEZvuJg2-Woi6Kg-27" style="edgeStyle=orthogonalEdgeStyle;rounded=0;orthogonalLoop=1;jettySize=auto;html=1;exitX=0.5;exitY=1;exitDx=0;exitDy=0;" edge="1" parent="HF1Z3YEZvuJg2-Woi6Kg-24" source="HF1Z3YEZvuJg2-Woi6Kg-26" target="HF1Z3YEZvuJg2-Woi6Kg-26">
          <mxGeometry relative="1" as="geometry" />
        </mxCell>
        <mxCell id="HF1Z3YEZvuJg2-Woi6Kg-28" value="&lt;div&gt;+ l: float&lt;/div&gt;&lt;div&gt;+ d: float&lt;/div&gt;" style="rounded=0;whiteSpace=wrap;html=1;" vertex="1" parent="HF1Z3YEZvuJg2-Woi6Kg-24">
          <mxGeometry y="34.34000000000003" width="160" height="47" as="geometry" />
        </mxCell>
        <mxCell id="HF1Z3YEZvuJg2-Woi6Kg-29" value="&lt;div&gt;+ calcularConsumo(): float&lt;/div&gt;" style="rounded=0;whiteSpace=wrap;html=1;" vertex="1" parent="HF1Z3YEZvuJg2-Woi6Kg-39">
          <mxGeometry y="81.34000000000003" width="160" height="38.66" as="geometry" />
        </mxCell>
        <mxCell id="HF1Z3YEZvuJg2-Woi6Kg-40" value="" style="group" connectable="0" vertex="1" parent="HF1Z3YEZvuJg2-Woi6Kg-46">
          <mxGeometry x="1260" y="310.00111111111113" width="160" height="154.33999999999997" as="geometry" />
        </mxCell>
        <mxCell id="HF1Z3YEZvuJg2-Woi6Kg-32" value="INTERCAMBIADOR" style="rounded=0;whiteSpace=wrap;html=1;container=0;" vertex="1" parent="HF1Z3YEZvuJg2-Woi6Kg-40">
          <mxGeometry width="160" height="34.33999999999999" as="geometry" />
        </mxCell>
        <mxCell id="HF1Z3YEZvuJg2-Woi6Kg-33" style="edgeStyle=orthogonalEdgeStyle;rounded=0;orthogonalLoop=1;jettySize=auto;html=1;exitX=0.5;exitY=1;exitDx=0;exitDy=0;" edge="1" parent="HF1Z3YEZvuJg2-Woi6Kg-40" source="HF1Z3YEZvuJg2-Woi6Kg-32" target="HF1Z3YEZvuJg2-Woi6Kg-32">
          <mxGeometry relative="1" as="geometry" />
        </mxCell>
        <mxCell id="HF1Z3YEZvuJg2-Woi6Kg-34" value="&lt;div&gt;- a: float&lt;/div&gt;&lt;div&gt;- ptc: float&amp;nbsp;&lt;/div&gt;&lt;div&gt;- d: float&lt;/div&gt;" style="rounded=0;whiteSpace=wrap;html=1;container=0;" vertex="1" parent="HF1Z3YEZvuJg2-Woi6Kg-40">
          <mxGeometry y="34.34000000000003" width="160" height="60" as="geometry" />
        </mxCell>
        <mxCell id="HF1Z3YEZvuJg2-Woi6Kg-36" value="&lt;div&gt;+ calcularConsumo(): float&lt;/div&gt;" style="rounded=0;whiteSpace=wrap;html=1;" vertex="1" parent="HF1Z3YEZvuJg2-Woi6Kg-40">
          <mxGeometry y="94.33999999999997" width="160" height="60" as="geometry" />
        </mxCell>
        <mxCell id="HF1Z3YEZvuJg2-Woi6Kg-41" value="" style="group" connectable="0" vertex="1" parent="HF1Z3YEZvuJg2-Woi6Kg-46">
          <mxGeometry x="414" width="266" height="291.1111111111111" as="geometry" />
        </mxCell>
        <mxCell id="qxQgp63TrIXnHu4Tk5A8-28" value="&lt;div&gt;+ calcularConsumoTotal(): float&lt;/div&gt;&lt;div&gt;+ equipoMayorConsumo(): Equipo&lt;/div&gt;&lt;div&gt;+ listarCentrifugasPorDiametro(): List&amp;lt;Centrifuga&amp;gt;&lt;/div&gt;&lt;div&gt;+ cantidadPorTipo(): dict&lt;/div&gt;&lt;div&gt;+ listarTrabajadoresAlfabeticamente(): +List&amp;lt;Trabajador&amp;gt;&lt;/div&gt;&lt;div&gt;+ trabajadorMasAntiguo(): Trabajador&lt;/div&gt;&lt;div&gt;+ mesesConExcesoConsumo(): List&amp;lt;string&amp;gt;&lt;/div&gt;" style="rounded=0;whiteSpace=wrap;html=1;container=0;" vertex="1" parent="HF1Z3YEZvuJg2-Woi6Kg-41">
          <mxGeometry y="123.38111111111112" width="266" height="167.73" as="geometry" />
        </mxCell>
        <mxCell id="qxQgp63TrIXnHu4Tk5A8-29" style="edgeStyle=orthogonalEdgeStyle;rounded=0;orthogonalLoop=1;jettySize=auto;html=1;exitX=0.5;exitY=1;exitDx=0;exitDy=0;" edge="1" parent="HF1Z3YEZvuJg2-Woi6Kg-41" source="qxQgp63TrIXnHu4Tk5A8-28" target="qxQgp63TrIXnHu4Tk5A8-28">
          <mxGeometry relative="1" as="geometry" />
        </mxCell>
        <mxCell id="qxQgp63TrIXnHu4Tk5A8-15" value="" style="edgeStyle=orthogonalEdgeStyle;rounded=0;orthogonalLoop=1;jettySize=auto;html=1;" edge="1" parent="HF1Z3YEZvuJg2-Woi6Kg-41">
          <mxGeometry relative="1" as="geometry">
            <mxPoint x="56.64814814814815" as="sourcePoint" />
            <mxPoint x="56.64814814814815" as="targetPoint" />
          </mxGeometry>
        </mxCell>
        <mxCell id="qxQgp63TrIXnHu4Tk5A8-19" value="" style="edgeStyle=orthogonalEdgeStyle;rounded=0;orthogonalLoop=1;jettySize=auto;html=1;" edge="1" parent="HF1Z3YEZvuJg2-Woi6Kg-41" source="qxQgp63TrIXnHu4Tk5A8-16" target="qxQgp63TrIXnHu4Tk5A8-18">
          <mxGeometry relative="1" as="geometry" />
        </mxCell>
        <mxCell id="qxQgp63TrIXnHu4Tk5A8-16" value="INDUSTRIA" style="rounded=0;whiteSpace=wrap;html=1;container=0;" vertex="1" parent="HF1Z3YEZvuJg2-Woi6Kg-41">
          <mxGeometry y="23.081111111111113" width="266" height="16.666666666666668" as="geometry" />
        </mxCell>
        <mxCell id="qxQgp63TrIXnHu4Tk5A8-18" value="&lt;div&gt;- alumbrado: float&lt;/div&gt;&lt;div&gt;- director: Director&lt;/div&gt;&lt;div&gt;- trabajadores: List&amp;lt;Trabajador&amp;gt;&lt;/div&gt;&lt;div&gt;- equipos: List&amp;lt;Equipo&amp;gt;&lt;/div&gt;&lt;div&gt;- informes: List&amp;lt;InformeMensual&amp;gt;&lt;/div&gt;" style="whiteSpace=wrap;html=1;rounded=0;container=0;" vertex="1" parent="HF1Z3YEZvuJg2-Woi6Kg-41">
          <mxGeometry y="40.04777777777778" width="266" height="83.33333333333333" as="geometry" />
        </mxCell>
      </root>
    </mxGraphModel>
  </diagram>
</mxfile>
